<?xml version="1.0" encoding="UTF-8"?><svg xmlns="http://www.w3.org/2000/svg" viewBox="0 0 33.13 43.27"><defs><style>.d{fill:#fff;}</style></defs><g id="a"/><g id="b"><g id="c"><g><path class="d" d="M33.13,27.01c-.37,9.17-6.72,16.26-14.91,16.26C8.68,43.27,0,33.92,0,21.88,0,10.88,7.7,0,17.23,0c4.46,0,8.13,2.2,11,6.91,1.96-1.77,3.24-4.16,3.67-6.91h.73V18.58h-.73C29.52,9.53,25.06,.79,17.42,.79c-3.54,0-6.23,1.83-8.13,5.5-1.47,2.87-1.96,9.41-1.96,16.87,0,6.23,.86,12.65,2.69,15.16,1.89,2.57,4.58,4.09,8.13,4.09,8.13,0,13.75-6.78,14.24-15.4h.73Z"/><g><path class="d" d="M25.89,14.73H11.13c-.56,0-1.02-1.02-1.02-2.27s.46-2.27,1.02-2.27h14.76c.56,0,1.02,1.02,1.02,2.27s-.46,2.27-1.02,2.27Z"/><path class="d" d="M25.89,23.91H11.13c-.56,0-1.02-1.02-1.02-2.27s.46-2.27,1.02-2.27h14.76c.56,0,1.02,1.02,1.02,2.27s-.46,2.27-1.02,2.27Z"/><path class="d" d="M25.89,33.08H11.13c-.56,0-1.02-1.02-1.02-2.27s.46-2.27,1.02-2.27h14.76c.56,0,1.02,1.02,1.02,2.27s-.46,2.27-1.02,2.27Z"/></g></g></g></g></svg>